<svg viewBox="0 0 506.39999 132.69333" width="240px" xmlns="http://www.w3.org/2000/svg">
	<g fill="#1b1918" transform="matrix(.13333 0 0 -.13333 0 132.69)">
		<path d="m260.13 0c-155.38 0-260.13 103.14-260.13 200.25v594.71c0 97.129 104.75 200.24 260.13 200.24 153.06 0 253.22-103.11 253.22-200.24v-184.65h-209.48v155.88c0 25.168-19.574 40.766-43.742 40.766-26.488 0-46.039-15.598-46.039-40.766v-537.14c0-25.196 19.551-40.801 46.039-40.801 24.168 0 43.742 15.605 43.742 40.801v155.82h209.48v-184.62c0-97.117-100.16-200.25-253.22-200.25" />
		<path d="m775.75 442.07v-424.07h-202.6v720.61h191.1l12.625-75.519c29.945 44.363 71.371 75.519 164.59 75.519v-170.24c-111.65 0-165.72-61.554-165.72-126.29" />
		<path d="m1271.8 552.79c0 23.949-19.54 34.738-43.72 34.738-24.17 0-42.58-10.789-42.58-34.738v-360.93c0-23.953 18.41-34.761 42.58-34.761 24.18 0 43.72 10.808 43.72 34.761zm-43.72-546.78c-135.82 0-246.32 69.551-246.32 176.28v378.87c0 107.93 110.5 177.45 246.32 177.45s246.32-69.519 246.32-177.45v-378.87c0-106.73-110.5-176.28-246.32-176.28" />
		<path d="m1764.3 6.0078c-148.47 0-237.09 69.551-237.09 176.28v73.137h185.3v-61.145c0-23.996 18.44-40.781 48.36-40.781 29.91 0 47.18 11.992 47.18 52.754 0 63.547-47.18 82.742-154.22 139.1-100.14 50.339-123.15 121.09-123.15 197.82 0 147.49 107.03 195.44 233.62 195.44 136.97 0 231.35-69.519 231.35-177.45v-67.14h-184.15v55.148c0 23.996-12.66 38.363-42.59 38.363-32.21 0-47.17-14.367-47.17-49.152 0-52.773 29.93-57.547 108.2-98.32 146.15-73.145 169.19-164.24 169.19-239.8 0-100.72-67.91-194.25-234.83-194.25" />
		<path d="m2281.1 6.0078c-148.47 0-237.09 69.551-237.09 176.28v73.137h185.31v-61.145c0-23.996 18.44-40.781 48.34-40.781 29.94 0 47.2 11.992 47.2 52.754 0 63.547-47.2 82.742-154.25 139.1-100.13 50.339-123.12 121.09-123.12 197.82 0 147.49 107.03 195.44 233.61 195.44 136.97 0 231.37-69.519 231.37-177.45v-67.14h-184.15v55.148c0 23.996-12.67 38.363-42.62 38.363-32.18 0-47.18-14.367-47.18-49.152 0-52.773 29.95-57.547 108.21-98.32 146.18-73.145 169.19-164.24 169.19-239.8 0-100.72-67.88-194.25-234.82-194.25" />
		<path d="m2784.1 806.96v-218.22h153.08v-177.44h-153.08v-393.29h-211.81v959.23h416.66v-170.27h-204.85" />
		<path d="m3037.2 17.996v707.44h203.75v-707.44zm0 789.2v170.03h203.75v-170.03z" />
		<path d="m3580 581.53v-366.88c0-20.371 19.55-34.785 42.59-34.785h52.94v-161.87h-96.68c-128.93 0-201.43 88.723-201.43 179.86v383.67h-87.49v143.91h87.49v122.27h202.58v-122.27h104.73v-143.91h-104.73" />
		<path d="m3765.7 701.12c-1.95 1.082-5.08 1.625-9.34 1.625h-6.58v-15.848h6.96c3.26 0 5.71.332 7.34.973 3.03 1.195 4.52 3.484 4.52 6.855 0 3.165-.97 5.313-2.9 6.395zm-8.33 6.898c5.44 0 9.41-.523 11.94-1.585 4.52-1.875 6.79-5.583 6.79-11.083 0-3.91-1.42-6.789-4.27-8.617-1.53-1-3.63-1.715-6.33-2.129 3.44-.539 5.94-1.976 7.52-4.293 1.58-2.308 2.37-4.578 2.37-6.781v-3.187c0-1.024.04-2.086.1-3.254.09-1.164.21-1.934.38-2.266l.29-.566h-7.22c-.04.148-.08.293-.11.461-.04.125-.08.293-.11.457l-.16 1.414v3.461c0 5.058-1.4 8.39-4.15 10.019-1.6.934-4.48 1.41-8.58 1.41h-6.05v-17.222h-7.74v43.761zm-23.47 2.227c-6.64-6.703-9.97-14.785-9.97-24.266 0-9.558 3.32-17.703 9.93-24.429 6.67-6.746 14.74-10.102 24.26-10.102s17.6 3.356 24.29 10.102c6.64 6.726 9.97 14.871 9.97 24.429 0 9.481-3.33 17.563-9.97 24.266-6.71 6.742-14.81 10.098-24.29 10.098-9.43 0-17.5-3.356-24.22-10.098zm52.47-52.512c-7.8-7.8-17.21-11.722-28.25-11.722s-20.42 3.922-28.17 11.722c-7.7 7.793-11.56 17.207-11.56 28.309 0 10.957 3.89 20.332 11.66 28.113 7.75 7.735 17.1 11.625 28.07 11.625 11.04 0 20.45-3.89 28.25-11.625 7.76-7.742 11.66-17.117 11.66-28.113 0-11.063-3.9-20.473-11.66-28.309" />
	</g>
</svg>
